# xmcd
#
# Track frame offsets: 
#        150
#        29722
#        58368
#        78146
#        120295
#        151773
#        168741
#        215335
#        247382
#        293779
#        340508
#
# Disc length: 4719 seconds
#
# Revision: 0
# Processed by: cddbd v1.5.2PL0 Copyright (c) Steve Scherf et al.
# Submitted via: ExactAudioCopyFreeDBPlugin 1.0
#
DISCID=9b126d0b
DTITLE=Cloud One - Spaced out . The very best of
DYEAR=2019
DGENRE=No, thanks.
TTITLE0=Spaced Out
TTITLE1=Charleston Hopscotch
TTITLE2=Dust To Dust
TTITLE3=Atmosphere Strut
TTITLE4=Disco Juice
TTITLE5=Doin' It All Night Long
TTITLE6=Jump, Jump, Jump
TTITLE7=Funky Track
TTITLE8=Stomp Your Feet And Dance
TTITLE9=Music Funk
TTITLE10=Happy Music
EXTD=
EXTT0=
EXTT1=
EXTT2=
EXTT3=
EXTT4=
EXTT5=
EXTT6=
EXTT7=
EXTT8=
EXTT9=
EXTT10=
PLAYORDER=
